<?xml version="1.0" encoding="UTF-8"?>
<svg xmlns="http://www.w3.org/2000/svg" id="Layer_1" data-name="Layer 1" viewBox="0 0 24 24">
  <path d="M14.824,11h-1.824v-1.825c0-.552-.447-1-1-1s-1,.448-1,1v1.825h-1.824c-.553,0-1,.448-1,1s.447,1,1,1h1.824v1.825c0,.552,.447,1,1,1s1-.448,1-1v-1.825h1.824c.553,0,1-.448,1-1s-.447-1-1-1Z"/>
  <path d="M11.994,1C4.929,1.044,1,5.011,1,12.019c0,6.891,3.933,10.94,11.006,10.981,7.162-.042,10.861-3.737,10.994-11.017-.122-7.037-4.026-10.938-11.006-10.983Zm.012,20c-6.026-.035-8.888-2.895-9.006-9,.113-6.019,3.059-8.963,8.994-9,5.874,.038,8.904,3.072,9.006,8.981-.112,6.117-2.974,8.983-8.994,9.019Z"/>
</svg>
