<?xml version="1.0" encoding="UTF-8"?>
<svg xmlns="http://www.w3.org/2000/svg"
     viewBox="0 0 24 24"
     width="512"
     height="512">

    <defs>
        <linearGradient id="blueGradient"
                        x1="0%"
                        y1="0%"
                        x2="100%"
                        y2="100%">
            <stop offset="0%" stop-color="#1565C0"/>
            <stop offset="50%" stop-color="#42A5F5"/>
            <stop offset="100%" stop-color="#18FFFF"/>
        </linearGradient>
    </defs>

    <path fill="url(#blueGradient)"
          d="M20.494,7.968l-9.54-7A5,5,0,0,0,3,5V19a5,5,0,0,0,7.957,4.031l9.54-7a5,5,0,0,0,0-8.064Zm-1.184,6.45-9.54,7A3,3,0,0,1,5,19V5A2.948,2.948,0,0,1,6.641,2.328,3.018,3.018,0,0,1,8.006,2a2.97,2.97,0,0,1,1.764.589l9.54,7a3,3,0,0,1,0,4.836Z"/>
</svg>