<svg id="Layer_1" viewBox="0 0 24 24" xmlns="http://www.w3.org/2000/svg" data-name="Layer 1"><path d="m12.421 10.549c.963.57 1.65 1.077 2.106 1.451-.456.374-1.144.88-2.106 1.451-.938.556-1.702.912-2.248 1.133-.089-.597-.173-1.46-.173-2.583s.084-1.987.173-2.583c.546.221 1.31.577 2.248 1.132zm10.579 1.451c0 7.71-3.29 11-11 11s-11-3.29-11-11 3.29-11 11-11 11 3.29 11 11zm-6.253-.665c-.173-.193-1.141-1.223-3.307-2.506-2.312-1.37-3.751-1.683-3.812-1.696-.499-.106-.998.183-1.156.668-.02.059-.473 1.478-.473 4.199s.453 4.14.473 4.199c.156.489.668.774 1.156.668.061-.013 1.5-.326 3.812-1.696 2.166-1.283 3.134-2.313 3.307-2.506.337-.379.337-.951 0-1.33z"/></svg>