<svg xmlns="http://www.w3.org/2000/svg" width="512" height="512" viewBox="0 0 14 14" fill="#000000"><g fill="none" stroke="#000000" stroke-linecap="round" stroke-linejoin="round"><path d="M4.853 7c0 .563.097 1.371.19 2.02c.082.575.65.944 1.199.75C7.558 9.3 8.785 8.58 9.629 7.5a.81.81 0 0 0 0-1.002c-.844-1.08-2.071-1.8-3.387-2.269c-.548-.195-1.117.175-1.2.75c-.092.648-.189 1.457-.189 2.02"/><path d="M.96 10.269a3.13 3.13 0 0 0 2.753 2.76c1.07.119 2.167.221 3.287.221s2.218-.102 3.287-.222a3.13 3.13 0 0 0 2.753-2.76c.114-1.063.21-2.155.21-3.268s-.096-2.205-.21-3.269a3.13 3.13 0 0 0-2.753-2.76C9.217.853 8.12.75 7 .75S4.782.852 3.713.972A3.13 3.13 0 0 0 .96 3.732C.846 4.794.75 5.886.75 7s.096 2.205.21 3.269"/></g></svg>