<svg xmlns="http://www.w3.org/2000/svg" width="512" height="512" viewBox="0 0 24 24"><path fill="#000000" d="m5.77 8.16l3.61.64h.01l-1.73 1.73l-4.81-.85L2 4.87l1.73-1.72l.63 3.61l1.12-1.12a8.98 8.98 0 0 1 12.72 0q.059.061.11.125q.051.065.11.125c.15.16.3.33.44.5c.09.11.18.23.27.35c.16.22.3.44.44.67l.037.057q.033.047.063.103a9 9 0 0 1 .49 1.02l.02.05c.35.88.56 1.79.63 2.72l-2.04-.29a7.2 7.2 0 0 0-.63-2.1l-.06-.12a7 7 0 0 0-.5-.84q-.026-.029-.05-.065a6.4 6.4 0 0 0-.75-.905a6.995 6.995 0 0 0-9.89 0zm10.25 5.31l4.81.85l.01.01l.85 4.81l-1.73 1.73l-.64-3.61l-1.12 1.12c-3.52 3.51-9.22 3.51-12.73 0l-.24-.27a8.96 8.96 0 0 1-2.37-5.46l2.04.29c.2 1.47.86 2.89 1.99 4.02c.23.23.48.44.73.63c2.74 2.07 6.66 1.87 9.16-.63l1.12-1.12l-3.61-.64z"/></svg>